# xmcd
#
# Track frame offsets: 
#        150
#        28628
#        52207
#        71358
#        106822
#        130398
#        149319
#        170394
#        195933
#        211127
#        236388
#        259481
#        282559
#        297807
#
# Disc length: 4330 seconds
#
# Revision: 0
# Processed by: cddbd v1.5.2PL0 Copyright (c) Steve Scherf et al.
# Submitted via: ExactAudioCopy v1.0b1
#
DISCID=d310e80e
DTITLE=The Isley Brothers - Winner Takes All
DYEAR=1979
DGENRE=Funk
TTITLE0=I Wanna Be With You (Part 1&2)
TTITLE1=Liquid Love (Parts 1&2)
TTITLE2=Winner Takes All
TTITLE3=Life In The City (Parts 1&2)
TTITLE4=It's A Disco Night (Rock Don't Stop) 1&2
TTITLE5=(Can't You See) What You Do To Me?
TTITLE6=Let's Fall In Love (Parts 1&2)
TTITLE7=How Lucky I Am (Part 1&2)
TTITLE8=You're The Key To My Heart
TTITLE9=You're Beside Me (Parts 1&2)
TTITLE10=Let Me In Your Life (Parts 1&2)
TTITLE11=Love Comes And Goes (Parts 1&2)
TTITLE12=Go For What You Know
TTITLE13=Mind Over Matter (Parts 1&2)
EXTD=
EXTT0=
EXTT1=
EXTT2=
EXTT3=
EXTT4=
EXTT5=
EXTT6=
EXTT7=
EXTT8=
EXTT9=
EXTT10=
EXTT11=
EXTT12=
EXTT13=
PLAYORDER=
